<svg width="638" height="482" viewBox="0 0 638 482" fill="none" xmlns="http://www.w3.org/2000/svg">
<g clip-path="url(#clip0_678_2327)">
<path fill-rule="evenodd" clip-rule="evenodd" d="M447.28 323.85H449.76C450.15 323.85 450.25 323.69 450.19 323.31C450.09 322.74 450.06 322.16 449.99 321.59C449.83 320.3 449.66 319 449.5 317.71H449.33C448.543 319.59 447.75 321.47 446.95 323.35C446.81 323.68 446.9 323.85 447.28 323.85Z" fill="#F6B646"/>
<path fill-rule="evenodd" clip-rule="evenodd" d="M423.2 325.81L424.2 328.01H424.35L426.63 313.18H426.51C424.58 315.3 422.66 317.44 420.73 319.56C420.617 319.68 420.55 319.835 420.539 319.999C420.528 320.163 420.574 320.326 420.67 320.46C421.53 322.22 422.36 324 423.2 325.81Z" fill="#F6B646"/>
<path fill-rule="evenodd" clip-rule="evenodd" d="M396.76 323.87C397.63 323.87 398.5 323.87 399.37 323.87C399.9 323.87 400.14 324.02 400.09 324.61C400.053 324.798 400.056 324.991 400.098 325.178C400.141 325.364 400.222 325.54 400.338 325.693C400.453 325.846 400.599 325.973 400.766 326.065C400.934 326.158 401.119 326.214 401.31 326.23C401.9 326.355 402.51 326.355 403.1 326.23C403.403 326.186 403.684 326.047 403.903 325.833C404.122 325.619 404.268 325.342 404.32 325.04C404.373 324.751 404.319 324.453 404.168 324.2C404.017 323.948 403.78 323.76 403.5 323.67C402.83 323.33 402.14 323.01 401.45 322.67C399.8 321.9 398.05 321.29 396.75 319.67C396.55 320.99 396.37 322.12 396.2 323.26C396.13 323.69 396.32 323.88 396.76 323.87Z" fill="#F6B646"/>
<path fill-rule="evenodd" clip-rule="evenodd" d="M358.24 214.76C347.43 211.95 327.98 204.61 326.47 204.61C324.96 204.61 251.25 211.31 248.65 213.9C246.05 216.49 241.95 217.79 243.03 227.52L364.51 220C364.51 220 369.06 217.57 358.24 214.76Z" fill="#F6B646"/>
<path fill-rule="evenodd" clip-rule="evenodd" d="M227.98 389.11L233.77 208.7C233.77 208.7 236.16 204.2 249.97 201.56C263.78 198.92 312.97 192.56 320.68 192.56C328.39 192.56 378.06 201.82 383.06 203.41C388.06 205 399.53 205.41 399.53 205.41L628.62 209.65C629.05 208.88 629.46 208.12 629.86 207.35L559.86 205.35C558.98 205.57 557.1 205.62 553.93 203.71C550.76 201.8 543.23 198.3 541.64 197.56L378.71 196.15C378.597 196.165 378.483 196.165 378.37 196.15C378.05 196.07 345.81 188.38 334.02 186.99C325.86 185.99 315.08 187.25 297.22 189.27C289.16 190.18 280.02 191.21 268.97 192.27C237.7 195.33 228.68 204.08 227.2 205.8L224.06 330C224.051 330.348 223.921 330.681 223.693 330.944C223.465 331.207 223.153 331.382 222.81 331.44L215.58 332.65V349.57L215.64 349.37L225.35 346.03L224.97 348.48C224.72 350.13 223.3 358.43 220.19 360.7C219.613 361.133 218.912 361.368 218.19 361.37C218.03 361.38 217.87 361.38 217.71 361.37C216.849 361.233 216.074 360.767 215.55 360.07V361.85C217.42 371.4 220.16 385.2 220.99 389.15L227.98 389.11Z" fill="#F6B646"/>
<path fill-rule="evenodd" clip-rule="evenodd" d="M391.12 322.29C391.3 321.07 391.45 320.06 391.61 319.04C391.056 319.544 390.457 319.996 389.82 320.39C389.66 320.48 389.48 320.62 389.7 320.79C390.256 321.204 390.737 321.712 391.12 322.29Z" fill="#F6B646"/>
<path fill-rule="evenodd" clip-rule="evenodd" d="M465.39 422.11C314.74 422.11 192.61 414.11 192.61 404.3C192.61 399.58 220.61 395.3 266.39 392.11H219.79C218.63 392.11 218.41 391.11 218.12 389.69C217.95 388.9 217.72 387.78 217.44 386.43C216.9 383.74 216.18 380.15 215.44 376.57C214.01 369.39 212.61 362.22 212.61 362.22C212.6 362.123 212.6 362.026 212.61 361.93V331.37C212.608 331.015 212.732 330.67 212.962 330.399C213.191 330.128 213.509 329.947 213.86 329.89L214.38 329.8C214.43 326.32 215.11 281.29 216.04 247.19C205.48 250.168 195.276 254.289 185.61 259.48V260L187.09 263.45C188.76 267.35 183.79 286.52 182.22 292.3C182.139 292.611 181.958 292.887 181.705 293.086C181.453 293.285 181.142 293.395 180.82 293.4C180.68 293.4 178.58 293.46 176.67 293.46C175.67 293.46 174.67 293.46 174.12 293.4C171.85 293.21 170.19 290.53 169.88 289.99C169.74 289.758 169.67 289.49 169.68 289.22C169.78 279.63 170.07 263.29 170.9 261.63C171.24 260.859 171.858 260.245 172.63 259.91C172.63 259.91 172.63 259.85 172.63 259.82C172.63 259.62 173.81 255.05 176 252.41C178.38 249.56 213.15 233.34 213.49 233.19C214.462 232.9 215.479 232.795 216.49 232.88C216.95 219.31 217.49 209.65 217.94 208.93C219.13 207.24 222.27 206.19 224.28 205.67V205.14C224.289 204.866 224.372 204.6 224.52 204.37C224.82 203.9 232.4 192.77 268.74 189.2C279.74 188.12 288.9 187.09 296.96 186.2C315.03 184.2 325.96 182.92 334.44 183.92C346.09 185.29 376.17 192.44 378.97 193.1L542.06 194.53C542.27 194.527 542.479 194.572 542.67 194.66C543.05 194.84 551.98 198.96 555.54 201.1C557.93 202.53 559.03 202.42 559.17 202.4C559.358 202.326 559.559 202.291 559.76 202.3L631.37 204.3C637.42 191.6 639.81 178.66 635.81 165.19C620.54 113.7 539.45 95.6098 480.61 68.4798C418.49 39.8798 357.39 -14.0002 284.81 3.38978C210.37 21.2598 205.91 102.28 153.44 147C109.99 184.05 27.31 194 6.86 240.38C-13.81 287.19 15.4 337.88 52.48 375.69C85.41 409.28 145.9 415.1 196.06 433.27C242.9 450.27 283.36 475.09 336.06 478.46C399.68 482.53 476.59 489.8 523.12 454.19C535.59 444.66 542.2 433.48 545.55 421.33C520.22 421.84 493.29 422.11 465.39 422.11Z" fill="#F6B646"/>
<path fill-rule="evenodd" clip-rule="evenodd" d="M289.86 389.1C288.478 384.237 288.233 379.121 289.142 374.148C290.051 369.175 292.09 364.477 295.103 360.417C298.115 356.357 302.021 353.044 306.517 350.733C311.013 348.421 315.98 347.174 321.035 347.087C326.09 346.999 331.097 348.075 335.67 350.23C340.243 352.385 344.26 355.561 347.411 359.515C350.562 363.469 352.762 368.093 353.842 373.032C354.922 377.971 354.853 383.092 353.64 388C387.75 387 425.57 386.44 465.39 386.44C493.98 386.44 521.88 386.52 548.28 386.75C547.833 384.551 547.608 382.313 547.61 380.07C547.609 378.274 547.757 376.481 548.05 374.71C546.9 353.66 545.32 332.11 552.97 312.48C554.565 308.452 556.422 304.534 558.53 300.75C513.53 300.7 343.76 299.66 343.76 299.66C343.76 299.66 336.58 299.13 332.86 302.83C329.14 306.53 306.29 324.53 306.29 324.53C306.29 324.53 287.7 331.71 285.06 332C284.32 332.08 283.66 332.17 283.06 332.27L280.73 389.14H289.85L289.86 389.1ZM448.63 312C450.07 312.05 451.53 312 452.98 312C453.89 312 453.93 312 454.08 312.95C454.68 316.536 455.277 320.13 455.87 323.73C456.16 325.48 456.48 327.22 456.79 328.97L456.09 329.86C454.74 330 453.39 329.86 452.09 329.86C451.933 329.863 451.78 329.808 451.661 329.704C451.543 329.6 451.467 329.456 451.45 329.3C451.38 328.906 451.33 328.509 451.3 328.11C451.3 327.33 450.93 327.11 449.84 327.29C448.846 327.447 447.834 327.447 446.84 327.29C446.04 327.18 445.66 327.39 445.45 328.01C445.31 328.43 445.09 328.83 444.94 329.24C444.87 329.447 444.735 329.625 444.554 329.748C444.374 329.871 444.158 329.931 443.94 329.92C442.68 329.92 441.41 329.92 440.14 329.92C440.036 329.931 439.931 329.913 439.837 329.867C439.743 329.821 439.664 329.749 439.61 329.66C439.555 329.571 439.527 329.468 439.529 329.363C439.531 329.259 439.562 329.157 439.62 329.07C442.17 323.66 444.74 318.26 447.29 312.85C447.38 312.575 447.563 312.34 447.808 312.185C448.052 312.03 448.343 311.964 448.63 312ZM376.06 328.86C376.893 323.526 377.713 318.166 378.52 312.78C378.52 312.663 378.545 312.548 378.594 312.442C378.643 312.337 378.713 312.242 378.802 312.167C378.89 312.091 378.994 312.035 379.105 312.002C379.217 311.97 379.335 311.962 379.45 311.98C381.96 311.98 384.45 311.98 386.96 311.98C387.807 311.998 388.646 312.143 389.45 312.41C390.091 312.568 390.684 312.879 391.178 313.316C391.673 313.753 392.054 314.303 392.29 314.92C392.41 314.19 392.53 313.47 392.63 312.74C392.627 312.623 392.65 312.507 392.697 312.401C392.743 312.294 392.813 312.199 392.901 312.123C392.989 312.046 393.093 311.99 393.205 311.958C393.317 311.927 393.435 311.92 393.55 311.94C394.78 311.94 396.01 311.94 397.24 311.94C397.76 311.94 397.96 312.13 397.87 312.67C397.752 313.024 397.708 313.398 397.74 313.77C397.99 313.77 398.08 313.61 398.21 313.51C400.94 311.32 406.13 311.11 408.94 313.07C409.604 313.512 410.12 314.142 410.423 314.88C410.726 315.617 410.802 316.429 410.64 317.21C410.64 317.321 410.615 317.431 410.569 317.533C410.522 317.634 410.455 317.724 410.37 317.797C410.286 317.87 410.187 317.924 410.08 317.956C409.973 317.987 409.86 317.995 409.75 317.98H406.06C405.55 317.98 405.36 317.77 405.37 317.25C405.402 317.045 405.392 316.835 405.338 316.634C405.285 316.434 405.19 316.246 405.06 316.084C404.931 315.922 404.768 315.789 404.584 315.694C404.4 315.598 404.197 315.542 403.99 315.53C403.443 315.401 402.872 315.429 402.34 315.61C402.058 315.685 401.804 315.842 401.61 316.061C401.416 316.279 401.291 316.55 401.25 316.84C401.223 317.109 401.283 317.38 401.422 317.612C401.56 317.844 401.77 318.026 402.02 318.13C402.94 318.69 403.96 319.04 404.91 319.53L407.11 320.66C407.953 321.006 408.653 321.63 409.093 322.428C409.533 323.227 409.687 324.152 409.53 325.05C409.883 322.883 410.217 320.713 410.53 318.54C410.84 316.59 411.16 314.63 411.44 312.68C411.438 312.554 411.463 312.43 411.515 312.316C411.567 312.202 411.644 312.101 411.74 312.021C411.835 311.94 411.948 311.882 412.069 311.851C412.19 311.82 412.317 311.816 412.44 311.84C413.63 311.84 414.81 311.84 415.99 311.84C416.72 311.84 416.84 312.03 416.73 312.76C416.443 314.6 416.153 316.43 415.86 318.25C415.877 318.269 415.898 318.284 415.921 318.295C415.944 318.305 415.969 318.311 415.995 318.311C416.021 318.311 416.046 318.305 416.069 318.295C416.092 318.284 416.113 318.269 416.13 318.25C417.78 316.41 419.45 314.58 421.07 312.72C421.263 312.468 421.514 312.266 421.801 312.13C422.088 311.995 422.403 311.929 422.72 311.94C430.02 311.94 437.32 311.94 444.62 311.94C445.62 311.94 445.71 312.02 445.55 313C445.44 313.66 445.31 314.32 445.23 315C445.228 315.111 445.201 315.221 445.152 315.321C445.103 315.421 445.033 315.509 444.946 315.58C444.859 315.65 444.759 315.701 444.651 315.729C444.542 315.756 444.43 315.76 444.32 315.74C443.11 315.74 441.9 315.74 440.7 315.74C440.13 315.74 439.91 315.95 439.83 316.49C439.21 320.64 438.57 324.79 437.95 328.94C437.86 329.52 437.64 329.82 437.01 329.81C435.8 329.81 434.59 329.81 433.39 329.81C432.77 329.81 432.61 329.54 432.7 328.99C433.367 324.836 434.003 320.686 434.61 316.54C434.74 315.71 434.71 315.66 433.87 315.66C433.35 315.66 432.87 315.66 432.33 315.66C431.79 315.66 431.48 315.9 431.4 316.48C431.11 318.48 430.78 320.56 430.47 322.6C430.16 324.64 429.81 326.86 429.47 329C429.473 329.124 429.447 329.248 429.395 329.362C429.343 329.476 429.266 329.576 429.17 329.656C429.074 329.736 428.961 329.793 428.84 329.823C428.719 329.853 428.592 329.855 428.47 329.83C425.64 329.83 422.8 329.83 419.97 329.83C419.738 329.853 419.506 329.795 419.312 329.666C419.119 329.536 418.976 329.343 418.91 329.12C418.13 327.35 417.32 325.59 416.52 323.82C416.23 323.19 416.22 323.22 415.73 323.68C415.091 324.271 414.698 325.081 414.63 325.95C414.54 326.95 414.31 328.01 414.17 329.05C414.172 329.175 414.146 329.3 414.094 329.415C414.042 329.529 413.966 329.631 413.871 329.713C413.775 329.795 413.663 329.855 413.542 329.889C413.421 329.923 413.294 329.93 413.17 329.91C412.01 329.91 410.85 329.91 409.69 329.91C408.88 329.91 408.77 329.76 408.88 328.91C409.05 327.63 409.25 326.36 409.44 325.08C408.36 328.64 405.54 329.7 402.24 330.01C400.68 330.181 399.101 329.986 397.63 329.44C396.954 329.195 396.34 328.806 395.83 328.3C395.72 328.2 395.63 328.02 395.46 328.06C395.29 328.1 395.28 328.29 395.26 328.44C395.06 329.99 395.05 329.89 393.48 329.89H390.74C389.97 329.89 389.88 329.76 389.98 329.03C390.05 328.5 390.12 328.03 390.21 327.34C388.21 329.39 385.77 329.82 383.21 329.87C381.07 329.92 378.92 329.87 376.78 329.87C375.98 329.88 375.89 329.75 376.06 328.86ZM373.67 323.53C373.099 325.918 371.852 328.091 370.079 329.79C368.305 331.489 366.081 332.641 363.67 333.11C360.793 333.656 357.815 333.162 355.267 331.717C352.719 330.272 350.768 327.97 349.76 325.22C349.14 323.68 349.5 322.8 351.03 322.13C352.425 321.588 353.883 321.229 355.37 321.06C357.283 320.853 359.217 321.064 361.04 321.68C362.665 322.167 364.314 322.571 365.98 322.89C366.52 322.98 366.98 323.18 367.04 323.81C367.1 324.44 366.62 324.81 366.04 324.97C364.685 325.239 363.292 325.26 361.93 325.03C360.786 324.845 359.625 324.798 358.47 324.89C359.257 325.651 360.204 326.226 361.242 326.572C362.281 326.918 363.384 327.027 364.47 326.89C366.557 326.672 368.498 325.714 369.94 324.19C370.361 323.735 370.699 323.21 370.94 322.64C371.33 321.75 371.87 321.45 372.59 321.64C372.787 321.687 372.973 321.775 373.134 321.899C373.295 322.022 373.429 322.177 373.527 322.355C373.625 322.533 373.685 322.729 373.702 322.931C373.72 323.134 373.695 323.337 373.63 323.53H373.67ZM349.23 318C350.92 312.71 354.4 309.34 359.99 308.59C362.474 308.265 364.997 308.704 367.225 309.85C369.452 310.995 371.279 312.791 372.46 315C372.8 315.552 373.081 316.139 373.3 316.75C373.492 317.184 373.508 317.677 373.344 318.123C373.18 318.569 372.848 318.934 372.42 319.14C371.124 319.79 369.728 320.22 368.29 320.41C365.62 320.97 363.11 320.28 360.59 319.57C359.354 319.193 358.094 318.896 356.82 318.68C356.555 318.705 356.29 318.624 356.085 318.454C355.88 318.284 355.75 318.04 355.725 317.775C355.7 317.509 355.781 317.245 355.951 317.04C356.12 316.834 356.365 316.705 356.63 316.68C357.768 316.343 358.967 316.265 360.14 316.45C361.493 316.624 362.856 316.707 364.22 316.7C363.179 315.562 361.754 314.85 360.22 314.7C358.928 314.55 357.618 314.694 356.389 315.119C355.16 315.545 354.043 316.243 353.12 317.16C352.587 317.67 352.162 318.282 351.87 318.96C351.47 319.82 350.87 320.15 350.13 319.89C349.943 319.831 349.77 319.734 349.621 319.605C349.473 319.476 349.353 319.318 349.269 319.14C349.184 318.963 349.137 318.77 349.131 318.574C349.124 318.378 349.158 318.182 349.23 318Z" fill="#F6B646"/>
<path fill-rule="evenodd" clip-rule="evenodd" d="M384.11 319.1C384.53 319.1 384.96 319.04 385.37 318.98C385.591 318.947 385.807 318.883 386.01 318.79C386.381 318.622 386.684 318.332 386.866 317.968C387.048 317.603 387.099 317.187 387.01 316.79C386.94 316.17 386.51 315.79 385.62 315.67C384.979 315.6 384.334 315.58 383.69 315.61C383.33 315.61 383.17 315.8 383.12 316.14C383.05 316.66 382.97 317.19 382.87 317.72C382.65 319.23 382.76 319.06 384.11 319.1Z" fill="#F6B646"/>
<path fill-rule="evenodd" clip-rule="evenodd" d="M381.86 326.1C382.965 326.292 384.101 326.171 385.14 325.75C385.513 325.521 385.804 325.18 385.971 324.776C386.138 324.372 386.173 323.925 386.07 323.5C385.9 322.8 385.29 322.44 384.28 322.43H382.54C382.27 322.43 382.05 322.51 382 322.82C381.86 323.74 381.71 324.66 381.58 325.58C381.55 325.81 381.57 326.09 381.86 326.1Z" fill="#F6B646"/>
</g>
<defs>
<clipPath id="clip0_678_2327">
<rect width="637.77" height="481.96" fill="white"/>
</clipPath>
</defs>
</svg>
