<svg width="639" height="483" viewBox="0 0 639 483" fill="none" xmlns="http://www.w3.org/2000/svg">
<path fillRule="evenodd" clipRule="evenodd" d="M285.557 3.67834C358.134 -13.738 419.238 40.1694 481.343 68.8054C540.192 95.9394 621.277 114.025 636.55 165.515C651.815 216.98 574.052 260.661 553.72 312.81C535.251 360.182 570.541 418.789 523.892 454.478C477.354 490.084 400.444 482.818 336.828 478.749C284.09 475.375 243.625 450.524 196.789 433.555C146.644 415.388 86.1539 409.565 53.2329 376.004C16.1504 338.201 -13.061 287.511 7.60579 240.696C28.061 194.36 110.741 184.363 154.191 147.312C206.662 102.568 211.117 21.5416 285.557 3.67834Z" fill="#F6B646"/>
</svg>
