<svg className="my-auto" width="13" height="15" viewBox="0 0 13 15" fill="none" xmlns="http://www.w3.org/2000/svg">
<path d="M0 11.0526C0 11.7474 0.316875 12.3711 0.8125 12.8053V14.2105C0.8125 14.6447 1.17812 15 1.625 15H2.4375C2.88438 15 3.25 14.6447 3.25 14.2105V13.4211H9.75V14.2105C9.75 14.6447 10.1156 15 10.5625 15H11.375C11.8219 15 12.1875 14.6447 12.1875 14.2105V12.8053C12.6831 12.3711 13 11.7474 13 11.0526V3.15789C13 0.394737 10.0913 0 6.5 0C2.90875 0 0 0.394737 0 3.15789V11.0526ZM2.84375 11.8421C2.16938 11.8421 1.625 11.3132 1.625 10.6579C1.625 10.0026 2.16938 9.47368 2.84375 9.47368C3.51812 9.47368 4.0625 10.0026 4.0625 10.6579C4.0625 11.3132 3.51812 11.8421 2.84375 11.8421ZM10.1562 11.8421C9.48188 11.8421 8.9375 11.3132 8.9375 10.6579C8.9375 10.0026 9.48188 9.47368 10.1562 9.47368C10.8306 9.47368 11.375 10.0026 11.375 10.6579C11.375 11.3132 10.8306 11.8421 10.1562 11.8421ZM11.375 7.10526H1.625V3.15789H11.375V7.10526Z" fill="#3A3270"/>
</svg>
