<svg width="116" height="181" viewBox="0 0 116 181" fill="none" xmlns="http://www.w3.org/2000/svg">
<path d="M3.37905 16.9877L108.569 0.457949C111.789 -0.0481424 113.399 -0.301188 114.45 0.596932C115.5 1.49505 115.5 3.12511 115.5 6.38521V80.1187H70.3063L90.3087 55.1157L74.6913 42.6218L36.6938 90.1187L74.6913 137.616L90.3087 125.122L70.3063 100.119H115.5V173.852C115.5 177.112 115.5 178.742 114.45 179.641C113.399 180.539 111.789 180.286 108.569 179.78L3.37905 163.25C1.76632 162.996 0.95995 162.87 0.479975 162.308C0 161.747 0 160.931 0 159.298V20.9392C0 19.3067 0 18.4905 0.479975 17.9292C0.95995 17.3679 1.76632 17.2412 3.37905 16.9877Z" fill="#F6B646"/>
</svg>
