<svg width="346" height="290" viewBox="0 0 346 290" fill="none" xmlns="http://www.w3.org/2000/svg">
<path fillRule="evenodd" clipRule="evenodd" d="M182.678 0.792963C223.848 8.24753 220.847 70.8537 249.814 101C277.441 129.751 333.469 129.436 343.379 168.032C353.954 209.217 331.39 257.484 296.105 281.284C263.505 303.272 222.018 276.769 182.678 276.421C144.051 276.081 101.722 302.99 71.2389 279.299C39.8172 254.879 40.437 207.692 43.2131 168.032C45.7697 131.507 62.3331 99.439 85.7979 71.3013C112.38 39.4254 141.802 -6.60847 182.678 0.792963Z" fill="#F6B646"/>
<path d="M196.911 235.728C189.153 229.407 199.665 228.664 205.891 229.083V233.214L220.797 236.986C216.068 239.201 204.67 242.05 196.911 235.728Z" fill="#3A3270"/>
<path d="M237.68 231.957C232.651 232.532 231.154 230.281 231.035 229.083H241.81C242.529 229.802 242.708 231.382 237.68 231.957Z" fill="#3A3270"/>
<path d="M226.365 214.536C220.797 214.536 217.744 214.177 213.254 213.818" stroke="#3A3270" stroke-width="3" stroke-linecap="round"/>
<path d="M230.675 216.692V233.933" stroke="#3A3270" stroke-width="3" stroke-linecap="round"/>
<path d="M217.744 217.59L205.891 216.692" stroke="#3A3270" stroke-width="3" stroke-linecap="round"/>
<path d="M223.312 219.385V236.806" stroke="#3A3270" stroke-width="3" stroke-linecap="round"/>
<path d="M223.132 237.165L230.675 234.112" stroke="#3A3270" stroke-width="3" stroke-linecap="round"/>
<path d="M213.075 213.818L205.891 216.691" stroke="#3A3270" stroke-width="3" stroke-linecap="round"/>
<path d="M205.711 216.871V233.394" stroke="#3A3270" stroke-width="3" stroke-linecap="round"/>
<path d="M205.532 233.214L223.132 237.165" stroke="#3A3270" stroke-width="3" stroke-linecap="round"/>
<path d="M226.365 214.896V209.867" stroke="#3A3270" stroke-width="3" stroke-linecap="round"/>
<path d="M241.989 228.904V211.483" stroke="#3A3270" stroke-width="3" stroke-linecap="round"/>
<path d="M250.431 205.736V225.132" stroke="#3A3270" stroke-width="3" stroke-linecap="round"/>
<path d="M241.989 229.263L250.43 225.133" stroke="#3A3270" stroke-width="3" stroke-linecap="round"/>
<path d="M250.431 205.557L231.394 204.838" stroke="#3A3270" stroke-width="3" stroke-linecap="round"/>
<path d="M226.365 209.867L231.394 204.838" stroke="#3A3270" stroke-width="3" stroke-linecap="round"/>
<path d="M241.989 211.304L250.251 205.916" stroke="#3A3270" stroke-width="3" stroke-linecap="round"/>
<path d="M241.99 228.904H231.394" stroke="#3A3270" stroke-width="3" stroke-linecap="round"/>
<path d="M226.544 209.867L236.781 210.226" stroke="#3A3270" stroke-width="3" stroke-linecap="round"/>
<path d="M83.037 243.288C83.2166 238.26 103.331 239.876 104.588 240.055V243.288L110.694 247.598C101.415 247.838 82.8933 247.311 83.037 243.288Z" fill="#3A3270"/>
<path d="M132.964 242.749V224.431" stroke="#3A3270" stroke-width="3" stroke-linecap="round"/>
<path d="M117.339 247.419V227.304" stroke="#3A3270" stroke-width="3" stroke-linecap="round"/>
<path d="M104.408 242.749V222.635" stroke="#3A3270" stroke-width="3" stroke-linecap="round"/>
<path d="M104.408 222.635L118.596 219.043" stroke="#3A3270" stroke-width="3" stroke-linecap="round"/>
<path d="M132.964 224.251L117.339 227.124" stroke="#3A3270" stroke-width="3" stroke-linecap="round"/>
<path d="M117.339 247.598L132.964 242.929" stroke="#3A3270" stroke-width="3" stroke-linecap="round"/>
<path d="M132.964 224.251L118.596 219.043" stroke="#3A3270" stroke-width="3" stroke-linecap="round"/>
<path d="M104.408 222.814L117.519 227.124" stroke="#3A3270" stroke-width="3" stroke-linecap="round"/>
<path d="M150.473 242.39C147.168 236.643 157.716 235.805 163.404 236.104V240.235L181.902 242.39C172.802 244.784 153.777 248.137 150.473 242.39Z" fill="#3A3270"/>
<path d="M191.06 234.667L184.056 241.851" stroke="#3A3270" stroke-width="3" stroke-linecap="round"/>
<path d="M182.44 219.941L164.301 218.684" stroke="#3A3270" stroke-width="3" stroke-linecap="round"/>
<path d="M171.665 214.014L191.061 214.912" stroke="#3A3270" stroke-width="3" stroke-linecap="round"/>
<path d="M163.941 218.684L163.043 239.517" stroke="#3A3270" stroke-width="3" stroke-linecap="round"/>
<path d="M191.06 215.271V234.308" stroke="#3A3270" stroke-width="3" stroke-linecap="round"/>
<path d="M184.056 226.586V241.851" stroke="#3A3270" stroke-width="3" stroke-linecap="round"/>
<path d="M163.941 218.684L171.664 214.014" stroke="#3A3270" stroke-width="3" stroke-linecap="round"/>
<path d="M184.056 241.851L162.864 239.696" stroke="#3A3270" stroke-width="3" stroke-linecap="round"/>
<path d="M146.727 107.789C147.505 107.55 149.565 107.322 151.576 108.328" stroke="#3A3270" stroke-width="3" stroke-linecap="round"/>
<path d="M139.543 117.128C140.932 117.128 142.057 115.922 142.057 114.434C142.057 112.946 140.932 111.74 139.543 111.74C138.155 111.74 137.029 112.946 137.029 114.434C137.029 115.922 138.155 117.128 139.543 117.128Z" fill="#3A3270"/>
<path d="M160.017 120.72C161.406 120.72 162.532 119.514 162.532 118.026C162.532 116.538 161.406 115.332 160.017 115.332C158.629 115.332 157.503 116.538 157.503 118.026C157.503 119.514 158.629 120.72 160.017 120.72Z" fill="#3A3270"/>
<path d="M133.437 110.124C133.617 108.986 134.73 106.819 137.747 107.25" stroke="#3A3270" stroke-width="3" stroke-linecap="round"/>
<path d="M156.425 109.765C157.862 108.508 161.454 106.748 164.327 109.765" stroke="#3A3270" stroke-width="3" stroke-linecap="round"/>
<path d="M148.703 112.818C150.379 115.572 152.725 121.474 148.703 123.055L146.727 123.773" stroke="#3A3270" stroke-width="3" stroke-linecap="round"/>
<path d="M141.878 129.341C142.297 130.478 143.889 132.358 146.907 130.777" stroke="#3A3270" stroke-width="3" stroke-linecap="round"/>
<path d="M84.0486 102.94C78.1579 122.336 94.5247 136.405 103.445 141.014C111.491 136.129 122.961 133.651 127.87 132.932C121.763 127.904 119.907 118.685 119.429 114.434C116.196 115.512 107.575 111.381 111.526 102.94C114.687 96.1875 118.111 99.6476 119.429 102.222L128.229 106.173C128.229 97.9834 133.856 95.2177 136.67 94.8585C138.394 93.7091 140.262 89.9495 140.98 88.2135C141.842 94.9663 150.678 99.8871 154.988 101.503C160.592 97.0496 165.105 99.6476 166.662 101.503L170.613 100.965C178.335 98.3308 192.2 89.327 185.878 74.3848C179.557 59.4426 166.482 62.1724 160.735 65.4051C141.052 52.3306 121.284 71.4513 113.861 82.6461C106.378 81.329 89.9393 83.5441 84.0486 102.94Z" fill="#3A3270"/>
<path d="M128.049 106.353L119.429 101.863" stroke="#3A3270" stroke-width="3" stroke-linecap="round"/>
<path d="M146.548 105.993C146.548 112.188 142.314 116.949 137.388 116.949C132.462 116.949 128.229 112.188 128.229 105.993C128.229 99.7988 132.462 95.0381 137.388 95.0381C142.314 95.0381 146.548 99.7988 146.548 105.993Z" stroke="#3A3270" stroke-width="3"/>
<path d="M170.254 109.944C170.254 116.139 166.021 120.9 161.095 120.9C156.169 120.9 151.936 116.139 151.936 109.944C151.936 103.75 156.169 98.9891 161.095 98.9891C166.021 98.9891 170.254 103.75 170.254 109.944Z" stroke="#3A3270" stroke-width="3"/>
<path d="M170.613 144.565C184.406 133.502 176.54 118.584 170.793 112.417C167.632 127.36 160.317 133.789 157.144 135.226L162.172 137.92L170.613 144.565Z" fill="#3A3270"/>
<path d="M120.506 105.993C120.207 102.701 116.376 94.8586 112.245 102.222C110.449 105.574 109.156 112.746 118.351 114.614" stroke="#3A3270" stroke-width="3" stroke-linecap="round"/>
<path d="M117.453 104.736C116.615 105.455 115.37 107.322 117.094 109.046" stroke="#3A3270" stroke-width="3" stroke-linecap="round"/>
<path d="M169.536 114.075C168.53 119.822 166.303 125.028 163.968 128.263C162.508 130.286 160.143 132.839 157.127 135.065" stroke="#3A3270" stroke-width="3" stroke-linecap="round"/>
<path d="M119.25 114.614C119.13 121.917 121.98 132.753 135.054 138.5C137.065 139.384 139.043 139.891 140.964 140.095" stroke="#3A3270" stroke-width="3" stroke-linecap="round"/>
<path d="M155.886 147.3C153.013 146.582 150.259 148.916 149.242 150.173C148.703 151.311 148.451 153.55 151.756 153.406C155.886 153.227 157.144 147.3 161.993 156.818C165.872 164.433 166.123 179.387 165.764 185.913" stroke="#3A3270" stroke-width="3" stroke-linecap="round" stroke-linejoin="round"/>
<path d="M146.486 145.324C145.548 147.36 144.788 151.179 149.242 150.174" stroke="#3A3270" stroke-width="3" stroke-linecap="round" stroke-linejoin="round"/>
<path d="M148.218 138.32C145.704 139.398 142.058 143.277 143.494 145.863C143.674 146.162 144.213 146.725 144.931 146.582C145.246 146.519 145.759 145.971 146.485 145.324C147.833 144.125 149.916 142.586 152.833 143.169" stroke="#3A3270" stroke-width="3" stroke-linecap="round" stroke-linejoin="round"/>
<path d="M198.476 199.989C200.272 191.189 198.522 170.54 176.54 150.712L161.993 137.961L152.834 133.112L151.038 132.753L144.213 134.369L143.495 135.088L141.16 139.398C140.801 140.296 142.346 141.338 144.932 140.475" stroke="#3A3270" stroke-width="3" stroke-linecap="round" stroke-linejoin="round"/>
<path d="M127.331 133.651C115.658 135.207 85.3531 141.899 66.9878 169.031C49.6792 194.602 69.255 205.377 83.8021 205.916" stroke="#3A3270" stroke-width="3" stroke-linecap="round" stroke-linejoin="round"/>
<path d="M2 209.508L82.9968 205.557" stroke="#3A3270" stroke-width="3" stroke-linecap="round" stroke-linejoin="round"/>
<path d="M105.087 204.659L256 198.084" stroke="#3A3270" stroke-width="3" stroke-linecap="round"/>
<path d="M91.6335 206.192C91.8555 206.88 91.6921 207.375 90.8271 207.45C88.2672 207.669 85.227 203.701 84.0273 201.689" stroke="#3A3270" stroke-width="3" stroke-linecap="round"/>
<path d="M91.6274 198.398C92.905 200.439 95.133 203.584 97.0863 205.369C96.9081 206.74 95.568 208.825 91.6338 206.192C91.0347 204.333 87.6274 201.066 87.6274 200.866" stroke="#3A3270" stroke-width="3" stroke-linecap="round"/>
<path d="M95.094 196.478C97.5382 199.175 101.974 204.954 100.161 206.489C99.8392 206.762 99.4294 206.788 98.9606 206.628C98.4025 206.438 97.7609 205.985 97.0864 205.369C95.1331 203.584 92.9051 200.439 91.6274 198.398" stroke="#3A3270" stroke-width="3" stroke-linecap="round"/>
<path d="M75.002 203.507C79.0906 198.387 92.1607 187.289 99.6272 194.009C102.605 196.981 106.316 202.352 104.183 204.546C103.116 205.369 100.807 204.271 99.3179 202.077" stroke="#3A3270" stroke-width="3" stroke-linecap="round"/>
<path d="M89.5679 174.307C86.9936 176.343 82.9588 181.635 87.4127 186.52" stroke="#3A3270" stroke-width="3" stroke-linecap="round"/>
</svg>
