<svg width="231" height="228" viewBox="0 0 231 228" fill="none" xmlns="http://www.w3.org/2000/svg">
<path fill-rule="evenodd" clip-rule="evenodd" d="M119.163 5.00909C134.755 5.44813 143.57 22.8917 156.082 32.2121C167.544 40.7501 181.752 45.5678 189.629 57.4983C198.211 70.4958 202.736 86.0535 201.902 101.61C201.024 117.978 197.184 135.881 184.849 146.666C172.78 157.218 154.35 152.735 138.835 156.752C123.989 160.596 110.876 171.784 95.6759 169.756C79.6497 167.618 65.5514 157.603 54.7775 145.538C43.9049 133.363 35.1799 118.142 35.002 101.814C34.8315 86.1631 45.411 73.0329 53.844 59.8509C61.2167 48.3264 70.4086 38.8897 80.8839 30.0946C92.81 20.0815 103.602 4.57091 119.163 5.00909Z" fill="#F6B646"/>
<path d="M106.536 77.9842C108.877 75.6355 113.596 71.6428 113.744 74.4612C113.928 77.9842 109.308 87.0697 113.744 82.9905C118.179 78.9112 123.539 71.68 123.908 74.4612C124.278 77.2424 124.832 77.9841 130.007 72.9778" stroke="#38336E" stroke-width="3" stroke-linecap="round"/>
<path d="M16.7292 118.151C17.5926 119.325 20.3551 121.611 24.499 121.362" stroke="#38336E" stroke-width="3" stroke-linecap="round"/>
<path d="M68.7345 123.33C64.6933 125.538 52.9709 127.632 38.0011 118.715C37.568 118.457 37.0055 118.55 36.6706 118.927C33.4782 122.519 25.3555 129.209 14.8644 130.064C11.6529 130.326 9.37383 128.717 13.1032 127.371C15.1752 126.622 16.7292 126.127 17.4543 125.402" stroke="#38336E" stroke-width="3" stroke-linecap="round"/>
<path d="M11.4458 128.303C9.37391 129.27 6.6804 129.919 6.26601 128.096C5.74803 125.817 9.4775 126.231 10.9278 125.092" stroke="#38336E" stroke-width="3" stroke-linecap="round"/>
<path d="M5.95533 128.199C2.43308 129.235 0.79843 126.116 3.88343 124.573C6.78413 123.123 9.27044 123.641 11.1352 121.466" stroke="#38336E" stroke-width="3" stroke-linecap="round"/>
<path d="M2.84728 125.299C2.05304 124.608 1.10686 122.833 3.67606 121.258C6.88755 119.29 21.9091 112.66 20.0443 107.376C19.4959 105.823 16.522 105.926 14.0357 102.715C12.189 100.329 14.0357 97.5348 16.3149 99.0888C16.9019 99.5378 20.5209 101.886 22.4271 101.057C24.7813 100.034 32.4957 99.1112 38.0758 105.984C38.207 106.146 38.3813 106.268 38.5814 106.325C43.2789 107.669 53.2354 109.534 57.8571 106.859" stroke="#38336E" stroke-width="3" stroke-linecap="round"/>
<path d="M22.6343 110.692C23.912 111.9 27.5033 112.349 29.7824 110.174" stroke="#38336E" stroke-width="3" stroke-linecap="round"/>
<path d="M214.271 116.918C213.407 118.093 210.645 120.379 206.501 120.13" stroke="#38336E" stroke-width="3" stroke-linecap="round"/>
<path d="M162.265 122.098C166.306 124.306 178.029 126.4 192.999 117.483C193.432 117.225 193.994 117.318 194.329 117.695C197.522 121.287 205.644 127.977 216.135 128.832C219.347 129.094 221.626 127.485 217.897 126.139C215.825 125.39 214.271 124.896 213.545 124.17" stroke="#38336E" stroke-width="3" stroke-linecap="round"/>
<path d="M219.554 127.071C221.626 128.038 224.32 128.687 224.734 126.864C225.252 124.585 221.522 124.999 220.072 123.859" stroke="#38336E" stroke-width="3" stroke-linecap="round"/>
<path d="M225.045 126.967C228.567 128.003 230.202 124.884 227.117 123.342C224.216 121.891 221.73 122.409 219.865 120.234" stroke="#38336E" stroke-width="3" stroke-linecap="round"/>
<path d="M228.153 124.066C228.947 123.376 229.893 121.601 227.324 120.026C224.112 118.058 209.091 111.428 210.956 106.144C211.504 104.59 214.478 104.694 216.964 101.483C218.811 99.097 216.964 96.3026 214.685 97.8566C214.098 98.3056 210.479 100.654 208.573 99.825C206.219 98.8014 198.504 97.879 192.924 104.752C192.793 104.914 192.619 105.036 192.419 105.093C187.721 106.436 177.765 108.302 173.143 105.626" stroke="#38336E" stroke-width="3" stroke-linecap="round"/>
<path d="M208.366 109.46C207.088 110.668 203.497 111.117 201.218 108.942" stroke="#38336E" stroke-width="3" stroke-linecap="round"/>
<path d="M104.416 35.4369C105.198 44.3551 109.2 60.0835 118.919 60.6931C129.157 61.3352 133.423 40.5738 133.423 35.2229" stroke="#38336E" stroke-width="3" stroke-linecap="round"/>
<path d="M106.281 35.0157L103.38 34.6013" stroke="#38336E" stroke-width="3" stroke-linecap="round"/>
<path d="M134.522 34.6013C137.664 35.3914 140.135 38.8247 132.594 45.3754" stroke="#38336E" stroke-width="3" stroke-linecap="round"/>
<path d="M103.056 34.6013C100.317 34.9605 97.4343 39.1264 105.866 45.3754" stroke="#38336E" stroke-width="3" stroke-linecap="round"/>
<ellipse cx="111.668" cy="36.3625" rx="1.86474" ry="1.76114" fill="#38336E"/>
<circle cx="125.86" cy="36.3625" r="1.76114" fill="#38336E"/>
<circle cx="111.875" cy="36.2587" r="4.92299" stroke="#38336E" stroke-width="3"/>
<path d="M130.473 36.2587C130.473 39.0007 128.292 41.1817 125.653 41.1817C123.014 41.1817 120.834 39.0007 120.834 36.2587C120.834 33.5167 123.014 31.3357 125.653 31.3357C128.292 31.3357 130.473 33.5167 130.473 36.2587Z" stroke="#38336E" stroke-width="3"/>
<path d="M117.469 35.6372H119.955" stroke="#38336E" stroke-width="3" stroke-linecap="round"/>
<path d="M116.463 39.574C115.925 42.561 115.865 47.5203 121.198 44.7893" stroke="#38336E" stroke-width="3" stroke-linecap="round"/>
<path d="M115.19 51.1768C116.33 50.5513 119.292 49.6758 122.027 51.1768" stroke="#38336E" stroke-width="3" stroke-linecap="round"/>
<path d="M130.937 34.6013H134.459" stroke="#38336E" stroke-width="3" stroke-linecap="round"/>
<path d="M102.681 17.3059C91.8097 22.4251 96.8774 31.3835 100.77 35.2229C101.45 34.711 103.601 34.583 104.592 34.583C102.724 20.932 109.759 17.3058 112.873 16.4526C121.579 14.9595 131.558 17.3059 133.257 24.1314C135.286 32.2851 135.35 35.0096 136.928 35.2229C142.921 30.445 142.038 21.2875 140.846 17.3059C142.401 12.8585 138.93 8.84514 136.928 6.42777C134.925 4.01041 129.435 -0.397849 119.668 0.0288611C100.345 1.94853 101.619 13.8932 102.681 17.3059Z" fill="#38336E"/>
<path d="M108.145 27.7638C109.026 27.6075 111.668 27.3886 115.19 27.7638" stroke="#38336E" stroke-width="3" stroke-linecap="round"/>
<path d="M122.649 28.1783C123.478 27.8656 125.964 27.4278 129.279 28.1783" stroke="#38336E" stroke-width="3" stroke-linecap="round"/>
<path d="M109.345 59.7221C88.8325 58.2717 83.7769 55.3503 68.9419 90.9047" stroke="#38336E" stroke-width="3" stroke-linecap="round"/>
<path d="M129.218 58.9739C146.829 62.0816 155.324 51.3075 166.927 86.8414" stroke="#38336E" stroke-width="3" stroke-linecap="round"/>
<path d="M81.27 113.385C79.303 122.783 73.4563 124.277 69.7954 123.751C69.1134 123.653 68.8674 122.858 69.2409 122.279C75.4624 112.633 65.0556 105.544 58.8486 106.693C58.2941 106.796 57.6845 106.515 57.6623 105.951C57.5249 102.472 63.4651 101.508 64.073 96.1879C64.4045 93.2872 64.7982 91.8033 66.4556 91.7333C73.811 91.4225 84.0671 100.021 81.27 113.385Z" stroke="#38336E" stroke-width="3" stroke-linecap="round"/>
<path d="M168.377 88.1877C170.046 95.9398 175.246 99.8811 173.853 104.942C173.717 105.437 173.174 105.68 172.675 105.556C161.394 102.764 158.103 114.371 161.378 120.112C161.842 120.925 161.361 122.152 160.456 121.914C152.619 119.852 147.04 106.867 148.901 101.655C154.599 85.7016 167.776 85.3907 168.377 88.1877Z" stroke="#38336E" stroke-width="3" stroke-linecap="round"/>
<path d="M151.491 114.605C151.422 128.314 151.678 142.597 153.667 153.868" stroke="#38336E" stroke-width="3" stroke-linecap="round"/>
<path d="M81.6844 112.142C81.8225 125.678 81.415 141.211 79.0945 154.72" stroke="#38336E" stroke-width="3" stroke-linecap="round"/>
<path d="M127.336 64.0291C128.258 61.4415 127.415 59.7001 126.597 59.3684C121.667 63.7476 114.19 62.1219 111.42 59.4678C110.434 60.3437 111.008 62.9346 111.42 63.7306C116.759 69.4635 124.358 66.2522 127.336 64.0291Z" fill="#38336E"/>
<path d="M61.6818 210.545L62.9091 203.182L80.6364 181.091H87.3182L85.6818 190.909H81.8636L72.3182 202.909L72.25 203.182H92.9773L91.75 210.545H61.6818ZM77.7727 216L79.0682 208.295L79.8182 205.091L83.7727 181.091H92.6364L86.8409 216H77.7727ZM109.908 216.955C106.726 216.955 104.095 216.227 102.016 214.773C99.9361 213.307 98.4986 211.205 97.7031 208.466C96.9077 205.727 96.8395 202.443 97.4986 198.614C98.1577 194.773 99.3338 191.511 101.027 188.83C102.732 186.148 104.845 184.108 107.368 182.71C109.902 181.312 112.749 180.614 115.908 180.614C119.067 180.614 121.68 181.312 123.749 182.71C125.817 184.108 127.254 186.148 128.061 188.83C128.868 191.5 128.953 194.761 128.317 198.614C127.68 202.455 126.51 205.744 124.805 208.483C123.112 211.222 120.993 213.318 118.447 214.773C115.913 216.227 113.067 216.955 109.908 216.955ZM111.203 209.25C112.839 209.25 114.305 208.398 115.601 206.693C116.908 204.977 117.874 202.284 118.499 198.614C118.908 196.227 119.004 194.273 118.788 192.75C118.572 191.216 118.107 190.085 117.391 189.358C116.675 188.619 115.771 188.25 114.68 188.25C113.044 188.25 111.555 189.085 110.214 190.756C108.885 192.415 107.919 195.034 107.317 198.614C106.908 201.068 106.817 203.08 107.044 204.648C107.271 206.216 107.749 207.375 108.476 208.125C109.203 208.875 110.112 209.25 111.203 209.25ZM130.447 210.545L131.675 203.182L149.402 181.091H156.084L154.447 190.909H150.629L141.084 202.909L141.016 203.182H161.743L160.516 210.545H130.447ZM146.538 216L147.834 208.295L148.584 205.091L152.538 181.091H161.402L155.607 216H146.538Z" fill="#38336E"/>
</svg>
